<svg width="272" height="74" viewBox="0 0 272 74" fill="none" xmlns="http://www.w3.org/2000/svg">
<path d="M12.3428 36.76C16.6628 38.584 18.8228 41.584 18.8228 45.76V60.52C18.8228 61.24 19.0628 61.84 19.5428 62.32C20.0228 62.8 20.6228 63.04 21.3428 63.04H26.0228V73.12H16.6628C13.3988 73.12 10.7828 72.136 8.81481 70.168C6.84681 68.2 5.86281 65.584 5.86281 62.32V44.32C5.86281 43.6 5.62281 43 5.14281 42.52C4.66281 42.04 4.06281 41.8 3.34281 41.8H0.102813V31.72H3.34281C4.06281 31.72 4.66281 31.48 5.14281 31C5.62281 30.52 5.86281 29.92 5.86281 29.2V11.2C5.86281 7.936 6.84681 5.32 8.81481 3.352C10.7828 1.384 13.3988 0.399999 16.6628 0.399999H26.0228V10.48H21.3428C20.6228 10.48 20.0228 10.72 19.5428 11.2C19.0628 11.68 18.8228 12.28 18.8228 13V27.76C18.8228 31.936 16.6628 34.936 12.3428 36.76ZM259.649 36.76C255.329 34.936 253.169 31.936 253.169 27.76V13C253.169 12.28 252.929 11.68 252.449 11.2C251.969 10.72 251.369 10.48 250.649 10.48H245.969V0.399999H255.329C258.593 0.399999 261.209 1.384 263.177 3.352C265.145 5.32 266.129 7.936 266.129 11.2V29.2C266.129 29.92 266.369 30.52 266.849 31C267.329 31.48 267.929 31.72 268.649 31.72H271.889V41.8H268.649C267.929 41.8 267.329 42.04 266.849 42.52C266.369 43 266.129 43.6 266.129 44.32V62.32C266.129 65.584 265.145 68.2 263.177 70.168C261.209 72.136 258.593 73.12 255.329 73.12H245.969V63.04H250.649C251.369 63.04 251.969 62.8 252.449 62.32C252.929 61.84 253.169 61.24 253.169 60.52V45.76C253.169 41.584 255.329 38.584 259.649 36.76Z" fill="#44DDC6"/>
<path d="M69.9513 42.88L76.4313 19.84H90.1113L78.2313 58H64.9113L57.7113 34.96L50.5113 58H37.1913L25.3112 19.84H38.9913L45.4713 42.88L51.9513 19.84H63.4713L69.9513 42.88ZM106.697 48.64C109.241 48.64 112.121 48.16 115.337 47.2V42.88H104.897C104.177 42.88 103.577 43.12 103.097 43.6C102.617 44.08 102.377 44.68 102.377 45.4V46.12C102.377 46.84 102.617 47.44 103.097 47.92C103.577 48.4 104.177 48.64 104.897 48.64H106.697ZM93.3766 20.56C102.161 19.6 110.081 19.12 117.137 19.12C120.401 19.12 123.017 20.104 124.985 22.072C126.953 24.04 127.937 26.656 127.937 29.92V58H116.777L116.057 54.4C113.801 55.888 111.473 56.992 109.073 57.712C106.721 58.384 104.729 58.72 103.097 58.72H100.577C97.3126 58.72 94.6966 57.736 92.7286 55.768C90.7606 53.8 89.7766 51.184 89.7766 47.92V44.68C89.7766 41.416 90.7606 38.8 92.7286 36.832C94.6966 34.864 97.3126 33.88 100.577 33.88H115.337V31C115.337 30.28 115.097 29.68 114.617 29.2C114.137 28.72 113.537 28.48 112.817 28.48C109.697 28.48 106.241 28.624 102.449 28.912C98.7046 29.2 95.6806 29.416 93.3766 29.56V20.56ZM153.837 58C150.621 58.48 147.549 58.72 144.621 58.72C141.741 58.72 139.317 57.736 137.349 55.768C135.381 53.8 134.397 51.184 134.397 47.92V7.6H146.997V46.12C146.997 46.84 147.237 47.44 147.717 47.92C148.197 48.4 148.797 48.64 149.517 48.64H153.837V58ZM185.866 58L185.146 54.4C182.89 55.888 180.562 56.992 178.162 57.712C175.81 58.384 173.818 58.72 172.186 58.72H168.946C165.682 58.72 163.066 57.736 161.098 55.768C159.13 53.8 158.146 51.184 158.146 47.92V31.36C158.146 27.76 159.154 24.952 161.17 22.936C163.234 20.872 166.066 19.84 169.666 19.84H184.426V7.6H197.026V58H185.866ZM175.786 48.28C178.33 48.28 181.21 47.8 184.426 46.84V29.56H173.626C171.706 29.56 170.746 30.52 170.746 32.44V45.76C170.746 46.48 170.986 47.08 171.466 47.56C171.946 48.04 172.546 48.28 173.266 48.28H175.786ZM243.097 47.2C243.097 50.8 242.065 53.632 240.001 55.696C237.985 57.712 235.177 58.72 231.577 58.72H215.017C211.417 58.72 208.585 57.712 206.521 55.696C204.505 53.632 203.497 50.8 203.497 47.2V30.64C203.497 27.04 204.505 24.232 206.521 22.216C208.585 20.152 211.417 19.12 215.017 19.12H231.577C235.177 19.12 237.985 20.152 240.001 22.216C242.065 24.232 243.097 27.04 243.097 30.64V47.2ZM230.497 31.72C230.497 29.8 229.537 28.84 227.617 28.84H218.977C217.057 28.84 216.097 29.8 216.097 31.72V46.12C216.097 48.04 217.057 49 218.977 49H227.617C229.537 49 230.497 48.04 230.497 46.12V31.72Z" fill="white"/>
</svg>
