<svg width="1920" height="583" viewBox="0 0 1920 583" fill="none" xmlns="http://www.w3.org/2000/svg">
<mask id="mask0_146_3" style="mask-type:alpha" maskUnits="userSpaceOnUse" x="-28" y="0" width="1971" height="583">
<g style="mix-blend-mode:screen">
<path style="mix-blend-mode:screen" d="M-0.516602 493.107C-0.516602 493.107 269.762 665.453 557.388 530.162C756.368 436.572 900.196 -47.8795 997.733 7.22593C1095.27 62.3314 1021.66 351.412 1237.07 341.582C1452.47 331.752 1416.02 230.448 1603.01 239.741C1723.73 245.728 1846.71 288.472 1927.97 243.196" stroke="url(#paint0_linear_146_3)" stroke-width="0.25" stroke-miterlimit="10"/>
<path style="mix-blend-mode:screen" d="M-1.56348 477.588C-1.56348 477.588 263.455 647.879 546.991 517.145C743.232 426.683 883.524 -39.7773 983.89 13.66C1084.29 67.0974 1014.59 347.629 1225.53 338.097C1436.48 328.565 1414.21 225.384 1599.07 234.618C1720.32 240.694 1842.8 294.519 1928.56 251.775" stroke="url(#paint1_linear_146_3)" stroke-width="0.25" stroke-miterlimit="10"/>
<path style="mix-blend-mode:screen" d="M-2.64014 462.039C-2.64014 462.039 257.119 630.274 536.563 504.098C730.098 416.793 866.791 -31.7061 970.048 20.093C1073.31 71.8921 1007.51 343.845 1213.97 334.641C1420.42 325.437 1412.33 220.379 1595.1 229.523C1716.87 235.66 1838.86 300.624 1929.08 260.383" stroke="url(#paint2_linear_146_3)" stroke-width="0.25" stroke-miterlimit="10"/>
<path style="mix-blend-mode:screen" d="M-3.68457 446.52C-3.68457 446.52 250.815 612.7 526.199 491.111C716.996 406.934 850.152 -23.5738 956.239 26.5573C1062.33 76.6883 1000.47 340.092 1202.46 331.216C1404.46 322.31 1410.55 215.375 1591.19 224.49C1713.52 230.715 1834.99 306.761 1929.7 269.081" stroke="url(#paint3_linear_146_3)" stroke-width="0.25" stroke-miterlimit="10"/>
<path style="mix-blend-mode:screen" d="M-4.73145 430.972C-4.73145 430.972 244.477 595.097 515.801 478.065C703.892 397.045 833.479 -15.5015 942.397 32.9913C1051.31 81.4841 993.364 336.31 1190.9 327.731C1388.43 319.152 1408.7 210.312 1587.23 219.367C1710.08 225.652 1831.05 312.838 1930.22 277.659" stroke="url(#paint4_linear_146_3)" stroke-width="0.25" stroke-miterlimit="10"/>
<path style="mix-blend-mode:screen" d="M-5.80713 415.452C-5.80713 415.452 238.142 577.551 505.406 465.047C690.759 387.155 816.809 -7.4003 928.586 39.4244C1040.36 86.2492 986.321 332.556 1179.39 324.275C1372.47 315.994 1406.92 205.277 1583.32 214.272C1706.72 220.647 1827.18 318.943 1930.8 286.267" stroke="url(#paint5_linear_146_3)" stroke-width="0.25" stroke-miterlimit="10"/>
<path style="mix-blend-mode:screen" d="M-6.85156 399.904C-6.85156 399.904 231.838 559.948 495.011 452.001C677.626 377.266 800.139 0.67233 914.747 45.8588C1029.35 91.0453 979.248 328.773 1167.83 320.82C1356.41 312.867 1405.07 200.243 1579.38 209.179C1703.31 215.613 1823.27 325.02 1931.39 294.876" stroke="url(#paint6_linear_146_3)" stroke-width="0.25" stroke-miterlimit="10"/>
<path style="mix-blend-mode:screen" d="M-7.92725 384.385C-7.92725 384.385 225.502 542.374 484.584 438.984C664.493 367.377 783.438 8.77497 900.875 52.2934C1018.31 95.8118 972.143 324.991 1156.27 317.336C1340.39 309.68 1403.2 195.21 1575.42 204.086C1699.9 210.61 1819.34 331.127 1931.91 303.485" stroke="url(#paint7_linear_146_3)" stroke-width="0.25" stroke-miterlimit="10"/>
<path style="mix-blend-mode:screen" d="M-8.979 368.836C-8.979 368.836 219.16 524.77 474.212 425.937C651.384 357.487 766.76 16.8464 887.089 58.7265C1007.39 100.607 965.124 321.207 1144.76 313.88C1324.39 306.552 1401.41 190.175 1571.51 198.992C1696.51 205.575 1815.45 337.232 1932.52 312.122" stroke="url(#paint8_linear_146_3)" stroke-width="0.25" stroke-miterlimit="10"/>
<path style="mix-blend-mode:screen" d="M-10.0522 353.317C-10.0522 353.317 212.827 507.195 463.788 412.92C638.253 347.598 750.061 24.948 873.22 65.1601C996.379 105.372 958.022 317.424 1133.19 310.424C1308.37 303.424 1399.57 185.141 1567.54 193.898C1693.07 200.571 1811.52 343.308 1933.05 320.73" stroke="url(#paint9_linear_146_3)" stroke-width="0.25" stroke-miterlimit="10"/>
<path style="mix-blend-mode:screen" d="M-11.1011 337.769C-11.1011 337.769 206.518 489.592 453.389 399.874C625.116 337.68 733.387 33.0211 859.375 71.595C985.364 110.169 950.945 313.642 1121.63 306.97C1292.31 300.297 1397.72 180.108 1563.57 188.836C1689.65 195.567 1807.58 349.446 1933.57 329.369" stroke="url(#paint10_linear_146_3)" stroke-width="0.25" stroke-miterlimit="10"/>
<path style="mix-blend-mode:screen" d="M-12.1724 322.22C-12.1724 322.22 200.187 471.988 442.998 386.827C611.987 327.79 716.721 41.0929 845.57 77.9987C974.419 114.904 943.876 309.829 1110.13 303.454C1276.38 297.08 1395.94 175.014 1559.67 183.682C1686.27 190.503 1803.71 355.492 1934.19 337.918" stroke="url(#paint11_linear_146_3)" stroke-width="0.25" stroke-miterlimit="10"/>
<path style="mix-blend-mode:screen" d="M-13.2207 306.702C-13.2207 306.702 193.879 454.444 432.599 373.811C598.881 317.902 700.047 49.1957 831.726 84.4632C963.405 119.731 936.798 306.076 1098.56 300.03C1260.32 293.983 1394.06 170.011 1555.7 178.619C1682.86 185.5 1799.77 361.599 1934.71 346.557" stroke="url(#paint12_linear_146_3)" stroke-width="0.25" stroke-miterlimit="10"/>
<path style="mix-blend-mode:screen" d="M-14.2959 291.152C-14.2959 291.152 187.513 436.839 422.204 360.763C585.749 308.011 683.377 57.2664 817.886 90.8658C952.395 124.465 929.725 302.262 1087.03 296.543C1244.33 290.794 1392.25 164.975 1551.76 173.524C1679.44 180.494 1795.9 367.704 1935.3 355.193" stroke="url(#paint13_linear_146_3)" stroke-width="0.25" stroke-miterlimit="10"/>
<path style="mix-blend-mode:screen" d="M-15.3428 275.634C-15.3428 275.634 181.207 419.265 411.806 347.747C572.644 298.123 666.674 65.3691 804.043 97.3303C941.413 129.291 922.65 298.54 1075.46 293.089C1228.27 287.667 1390.4 159.942 1547.79 168.431C1676.03 175.461 1791.96 373.781 1935.82 363.802" stroke="url(#paint14_linear_146_3)" stroke-width="0.25" stroke-miterlimit="10"/>
<path style="mix-blend-mode:screen" d="M-16.4194 260.085C-16.4194 260.085 174.87 401.661 401.379 334.701C559.479 288.234 649.972 73.4416 790.202 103.735C930.432 134.028 915.575 294.727 1063.93 289.604C1212.28 284.48 1388.59 154.878 1543.86 163.308C1672.61 170.427 1788.05 379.858 1936.4 372.381" stroke="url(#paint15_linear_146_3)" stroke-width="0.25" stroke-miterlimit="10"/>
<path style="mix-blend-mode:screen" d="M-17.4678 244.566C-17.4678 244.566 168.562 384.087 391.01 321.684C546.374 278.344 633.329 81.543 776.389 110.198C919.448 138.853 908.529 290.973 1052.39 286.178C1196.28 281.382 1386.77 149.874 1539.92 158.244C1669.23 165.422 1784.14 385.993 1936.95 381.019" stroke="url(#paint16_linear_146_3)" stroke-width="0.25" stroke-miterlimit="10"/>
<path style="mix-blend-mode:screen" d="M-18.5376 229.018C-18.5376 229.018 162.202 366.484 380.59 308.668C533.246 268.486 616.634 89.6461 762.523 116.633C908.443 143.62 901.399 287.192 1040.83 282.694C1180.26 278.196 1384.9 144.811 1535.96 153.151C1665.79 160.419 1780.21 392.071 1937.48 389.628" stroke="url(#paint17_linear_146_3)" stroke-width="0.25" stroke-miterlimit="10"/>
<path style="mix-blend-mode:screen" d="M-19.5874 213.498C-19.5874 213.498 155.892 348.909 370.22 295.65C520.139 258.596 599.989 97.7472 748.739 123.096C897.489 148.444 894.382 283.438 1029.32 279.267C1164.26 275.097 1383.11 139.836 1532.04 148.087C1662.4 155.444 1776.33 398.206 1938.09 398.295" stroke="url(#paint18_linear_146_3)" stroke-width="0.25" stroke-miterlimit="10"/>
<path style="mix-blend-mode:screen" d="M-20.6328 197.949C-20.6328 197.949 149.587 331.334 359.824 282.603C507.036 248.676 583.287 105.819 734.898 129.529C886.509 153.21 887.308 279.654 1017.79 275.812C1148.24 271.969 1381.3 134.802 1528.11 142.993C1659.02 150.41 1772.43 404.312 1938.65 406.903" stroke="url(#paint19_linear_146_3)" stroke-width="0.25" stroke-miterlimit="10"/>
<path style="mix-blend-mode:screen" d="M-21.7095 182.431C-21.7095 182.431 143.251 313.76 349.397 269.587C493.871 238.817 566.585 113.921 721.026 135.963C875.466 158.006 880.203 275.872 1006.19 272.327C1132.18 268.782 1379.42 129.738 1524.11 137.9C1655.54 145.406 1768.46 410.389 1939.17 415.512" stroke="url(#paint20_linear_146_3)" stroke-width="0.25" stroke-miterlimit="10"/>
<path style="mix-blend-mode:screen" d="M-22.7583 166.883C-22.7583 166.883 136.911 296.157 339.028 256.541C480.796 228.899 549.942 121.994 707.243 142.398C864.544 162.772 873.187 272.09 994.715 268.873C1116.24 265.656 1377.63 124.705 1520.23 132.807C1652.22 140.373 1764.61 416.496 1939.78 424.121" stroke="url(#paint21_linear_146_3)" stroke-width="0.25" stroke-miterlimit="10"/>
<path style="mix-blend-mode:screen" d="M-23.8281 151.364C-23.8281 151.364 130.581 278.583 328.607 243.524C467.637 219.039 533.246 130.096 693.377 148.832C853.508 167.568 866.088 268.336 983.126 265.417C1100.16 262.498 1375.76 119.671 1516.24 127.713C1648.75 135.368 1760.65 422.572 1940.28 432.729" stroke="url(#paint22_linear_146_3)" stroke-width="0.25" stroke-miterlimit="10"/>
<path style="mix-blend-mode:screen" d="M-24.8774 135.815C-24.8774 135.815 124.272 260.979 318.238 230.477C454.531 209.12 516.602 138.168 679.563 155.266C842.554 172.333 859.01 264.553 971.618 261.932C1084.23 259.311 1373.98 114.637 1512.33 122.619C1645.39 130.334 1756.77 428.678 1940.89 441.367" stroke="url(#paint23_linear_146_3)" stroke-width="0.25" stroke-miterlimit="10"/>
<path style="mix-blend-mode:screen" d="M-25.9536 120.266C-25.9536 120.266 117.936 243.374 307.811 217.43C441.397 199.23 499.9 146.24 665.722 161.669C831.543 177.099 851.936 260.74 960.053 258.446C1068.17 256.153 1372.13 109.572 1508.36 117.496C1641.95 125.3 1752.83 434.754 1941.42 449.945" stroke="url(#paint24_linear_146_3)" stroke-width="0.25" stroke-miterlimit="10"/>
<path style="mix-blend-mode:screen" d="M-27 104.747C-27 104.747 111.6 225.8 297.414 204.413C428.262 189.341 483.198 154.342 651.88 168.133C820.561 181.924 844.861 256.987 948.518 255.021C1052.18 253.055 1370.32 104.568 1504.42 112.432C1638.53 120.296 1748.93 440.86 1942 458.584" stroke="url(#paint25_linear_146_3)" stroke-width="0.25" stroke-miterlimit="10"/>
<path style="mix-blend-mode:screen" d="M-26.229 100.606C-26.229 100.606 108.403 224.609 291.91 208.405C329.375 205.068 360.81 199.915 390.769 194.703C464.96 181.835 528.2 167.597 646.068 176.175C778.147 185.677 822.409 231.43 887.156 249.57C903.889 254.306 921.975 257.076 943.23 256.719C1020.83 255.527 1206.43 179.065 1356.81 134.98C1411.32 119.015 1461.06 109.632 1497.94 111.091C1636.01 116.542 1755.97 429.779 1941.29 446.788" stroke="url(#paint26_linear_146_3)" stroke-width="0.25" stroke-miterlimit="10"/>
<path style="mix-blend-mode:screen" d="M-25.4619 96.4365C-25.4619 96.4365 105.171 223.358 286.372 212.396C323.344 210.103 354.687 205.813 384.769 201.494C460.19 190.592 524.23 176.89 640.253 184.248C770.547 192.29 816.101 234.289 881.802 251.596C898.689 256.093 916.806 258.774 937.999 258.446C1017.69 257.493 1199.26 183.95 1350.94 135.546C1404.46 118.479 1454.1 108.977 1491.5 109.751C1633.52 112.76 1763.08 418.699 1940.68 434.992" stroke="url(#paint27_linear_146_3)" stroke-width="0.25" stroke-miterlimit="10"/>
<path style="mix-blend-mode:screen" d="M-24.6587 92.2959C-24.6587 92.2959 101.976 222.136 280.869 216.387C317.349 215.166 348.57 211.77 378.806 208.256C455.457 199.349 520.327 186.154 634.473 192.32C762.984 198.932 809.891 237 876.484 253.591C893.525 257.85 911.703 260.412 932.773 260.174C1014.53 259.28 1192.07 188.894 1345.03 136.112C1397.6 117.972 1447.15 108.738 1485.05 108.44C1631.03 107.368 1770.15 407.648 1940.03 423.256" stroke="url(#paint28_linear_146_3)" stroke-width="0.25" stroke-miterlimit="10"/>
<path style="mix-blend-mode:screen" d="M-23.8921 88.1562C-23.8921 88.1562 98.7743 220.916 275.33 220.38C311.318 220.201 342.446 217.699 372.805 215.018C450.718 208.137 516.357 195.448 628.627 200.363C755.354 205.546 803.583 239.771 871.099 255.558C888.293 259.579 906.503 262.051 927.48 261.872C1011.3 261.187 1184.81 193.929 1339.1 136.649C1390.71 117.466 1440.14 107.607 1478.59 107.101C1628.57 105.135 1777.23 396.598 1939.39 411.461" stroke="url(#paint29_linear_146_3)" stroke-width="0.25" stroke-miterlimit="10"/>
<path style="mix-blend-mode:screen" d="M-23.124 83.9863C-23.124 83.9863 95.5437 219.665 269.793 224.341C305.258 225.205 336.324 223.626 366.806 221.75C446.011 216.895 512.419 204.682 622.813 208.405C747.755 212.129 797.308 242.571 865.715 257.554C883.063 261.336 901.334 263.719 922.189 263.6C1008.07 263.094 1177.52 199.082 1333.13 137.185C1383.82 117.02 1433.12 106.892 1472.07 105.76C1626.01 101.263 1784.24 385.517 1938.68 399.666" stroke="url(#paint30_linear_146_3)" stroke-width="0.25" stroke-miterlimit="10"/>
<path style="mix-blend-mode:screen" d="M-22.3237 79.8457C-22.3237 79.8457 92.3454 218.443 264.288 228.362C299.261 230.269 330.235 229.613 360.84 228.541C441.336 225.741 508.483 214.214 617 216.477C740.159 219.039 791.034 245.4 860.364 259.549C877.866 263.123 896.168 265.238 916.93 265.328C1004.9 265.655 1170.29 204.324 1327.19 137.751C1376.93 116.662 1426.11 106.207 1465.58 104.45C1623.52 97.3901 1791.25 374.466 1937.97 387.93" stroke="url(#paint31_linear_146_3)" stroke-width="0.25" stroke-miterlimit="10"/>
<path style="mix-blend-mode:screen" d="M-21.5537 75.7051C-21.5537 75.7051 89.1476 217.222 258.783 232.353C293.264 235.302 324.146 234.587 354.874 235.302C436.631 237.268 504.546 223.507 611.218 224.52C732.593 225.681 784.791 248.2 855.044 261.515C872.7 264.851 891.063 266.876 911.702 266.995C1001.73 267.621 1163.06 209.596 1321.32 138.257C1370.13 116.245 1419.19 105.462 1459.15 103.079C1621.09 93.4282 1798.36 363.355 1937.36 376.104" stroke="url(#paint32_linear_146_3)" stroke-width="0.25" stroke-miterlimit="10"/>
<path style="mix-blend-mode:screen" d="M-20.7861 71.5645C-20.7861 71.5645 85.8857 216.328 253.245 236.345C287.233 240.396 318.085 240.485 348.874 242.093C431.862 246.353 500.608 233.425 605.403 232.621C724.994 231.698 778.514 251.059 849.69 263.57C867.469 266.697 885.894 268.604 906.441 268.782C998.533 269.676 1155.86 215.077 1315.38 138.882C1363.24 116.006 1412.18 104.806 1452.69 101.798C1618.6 89.5258 1805.43 352.334 1936.71 364.368" stroke="url(#paint33_linear_146_3)" stroke-width="0.25" stroke-miterlimit="10"/>
<path style="mix-blend-mode:screen" d="M-19.9854 67.3945C-19.9854 67.3945 82.6571 215.107 247.74 240.336C281.237 245.459 311.965 247.574 342.908 248.855C427.28 252.37 496.672 242.123 599.591 240.664C717.398 238.996 772.21 253.859 844.34 265.536C862.272 268.425 880.758 270.242 901.182 270.48C995.335 271.642 1148.67 220.558 1309.48 139.389C1356.44 115.679 1405.23 104.032 1446.23 100.428C1616.14 85.5048 1812.51 341.224 1936.07 352.543" stroke="url(#paint34_linear_146_3)" stroke-width="0.25" stroke-miterlimit="10"/>
<path style="mix-blend-mode:screen" d="M-19.2153 63.2539C-19.2153 63.2539 79.4284 213.915 242.205 244.327C275.178 250.493 305.845 253.561 336.911 255.616C422.605 261.276 492.736 251.417 593.779 248.736C709.801 245.668 765.936 256.719 838.989 267.531C857.075 270.212 875.622 272.089 895.923 272.208C992.137 272.774 1141.5 226.157 1303.54 139.955C1349.62 115.44 1398.22 103.317 1439.74 99.1171C1613.62 81.5131 1819.55 330.173 1935.39 340.807" stroke="url(#paint35_linear_146_3)" stroke-width="0.25" stroke-miterlimit="10"/>
<path style="mix-blend-mode:screen" d="M-18.4478 59.1143C-18.4478 59.1143 76.1974 212.695 236.667 248.32C269.148 255.528 299.722 259.579 330.912 262.379C417.898 270.213 488.766 260.681 587.933 256.779C702.172 252.281 759.599 259.519 833.604 269.528C851.844 272 870.423 273.757 890.631 273.936C988.937 274.74 1134.36 231.877 1297.6 140.521C1342.79 115.232 1391.23 102.603 1433.28 97.8072C1611.16 77.5225 1826.62 319.123 1934.71 329.042" stroke="url(#paint36_linear_146_3)" stroke-width="0.25" stroke-miterlimit="10"/>
<path style="mix-blend-mode:screen" d="M-17.6802 54.9443C-17.6802 54.9443 72.9663 211.474 231.159 252.281C263.149 260.532 293.631 265.566 324.943 269.111C413.221 279.119 484.859 269.945 582.149 264.822C694.604 258.894 753.353 262.349 828.282 271.494C846.676 273.728 865.316 275.426 885.401 275.634C985.767 276.647 1127.35 237.626 1291.7 141.058C1335.99 115.024 1384.25 101.858 1426.82 96.467C1608.67 73.4717 1833.7 308.042 1934.06 317.246" stroke="url(#paint37_linear_146_3)" stroke-width="0.25" stroke-miterlimit="10"/>
<path style="mix-blend-mode:screen" d="M-16.8804 50.8027C-16.8804 50.8027 69.7674 210.251 225.653 256.301C257.151 265.595 287.54 271.612 318.976 275.931C408.577 288.173 480.952 279.267 576.366 272.922C687.068 265.565 747.109 265.237 822.929 273.518C841.446 275.544 860.148 277.122 880.141 277.361C982.568 278.612 1120.34 243.523 1285.79 141.593C1329.25 114.844 1377.3 101.083 1420.36 95.1254C1606.2 69.3896 1840.74 296.96 1933.42 305.449" stroke="url(#paint38_linear_146_3)" stroke-width="0.25" stroke-miterlimit="10"/>
<path style="mix-blend-mode:screen" d="M-16.1133 46.6631C-16.1133 46.6631 66.5359 209.031 220.115 260.293C251.12 270.629 281.418 277.659 312.976 282.693C403.869 297.169 476.982 288.531 570.52 280.965C679.438 272.149 740.771 268.068 817.545 275.514C836.216 277.331 854.979 278.821 874.88 279.089C979.367 280.608 1113.41 249.481 1279.85 142.159C1322.45 114.696 1370.28 100.339 1413.87 93.7857C1603.68 65.2798 1847.78 285.88 1932.74 293.684" stroke="url(#paint39_linear_146_3)" stroke-width="0.25" stroke-miterlimit="10"/>
<path style="mix-blend-mode:screen" d="M-15.3428 42.4922C-15.3428 42.4922 63.3077 207.749 214.58 264.254C245.093 275.633 275.298 283.675 306.98 289.424C399.133 306.164 473.047 297.764 564.708 289.007C671.842 278.76 734.497 270.897 812.194 277.48C831.019 279.088 849.813 280.458 869.621 280.786C976.201 282.543 1106.53 255.497 1273.95 142.695C1315.72 114.546 1363.3 99.5635 1407.44 92.4445C1601.22 61.1685 1854.89 274.799 1932.13 281.888" stroke="url(#paint40_linear_146_3)" stroke-width="0.25" stroke-miterlimit="10"/>
<path style="mix-blend-mode:screen" d="M-14.543 38.3525C-14.543 38.3525 60.1089 206.528 209.074 268.276C239.064 280.697 269.208 289.752 301.013 296.216C394.458 315.25 469.11 307.059 558.926 297.08C664.275 285.374 728.223 273.757 806.873 279.476C825.852 280.846 844.707 282.157 864.392 282.514C973.033 284.54 1099.79 261.634 1268.04 143.261C1309.01 114.428 1356.35 98.8196 1400.98 91.1346C1598.7 57.0586 1861.96 263.749 1931.45 270.123" stroke="url(#paint41_linear_146_3)" stroke-width="0.25" stroke-miterlimit="10"/>
<path style="mix-blend-mode:screen" d="M-13.7725 34.2119C-13.7725 34.2119 56.8807 205.277 203.57 272.267C233.068 285.731 263.119 295.799 295.078 302.978C389.784 324.305 465.236 316.322 553.145 305.152C656.71 291.986 721.98 276.616 801.554 281.501C820.655 282.663 839.572 283.854 859.165 284.271C969.866 286.565 1093.12 267.889 1262.17 143.857C1302.37 114.368 1349.4 98.1044 1394.55 89.8535C1596.24 52.9478 1869.07 252.727 1930.84 258.387" stroke="url(#paint42_linear_146_3)" stroke-width="0.25" stroke-miterlimit="10"/>
<path style="mix-blend-mode:screen" d="M-13.0049 30.0723C-13.0049 30.0723 53.6496 204.027 198.032 276.26C227.038 290.766 256.997 301.846 289.078 309.77C385.046 333.42 461.267 325.586 547.33 313.225C649.111 298.6 715.704 279.506 796.2 283.498C815.455 284.451 834.433 285.553 853.904 286C966.666 288.561 1086.47 274.174 1256.23 144.394C1295.63 114.25 1342.39 97.3307 1388.09 88.5138C1593.72 48.7783 1876.14 241.647 1930.19 246.622" stroke="url(#paint43_linear_146_3)" stroke-width="0.25" stroke-miterlimit="10"/>
<path style="mix-blend-mode:screen" d="M-12.208 25.9023C-12.208 25.9023 50.6017 202.508 192.523 280.221C221.067 295.71 250.904 307.893 283.108 316.502C380.306 342.476 457.357 334.791 541.514 321.267C641.511 305.183 709.396 282.366 790.845 285.464C810.254 286.209 829.263 287.191 848.641 287.668C963.495 290.498 1079.95 280.46 1250.32 144.9C1288.99 114.131 1335.4 96.5267 1381.63 87.1438C1591.19 44.5786 1883.22 230.537 1929.54 234.797" stroke="url(#paint44_linear_146_3)" stroke-width="0.25" stroke-miterlimit="10"/>
<path style="mix-blend-mode:screen" d="M-11.4346 21.7607C-11.4346 21.7607 47.4072 201.285 186.991 284.241C215.043 300.803 244.756 313.969 277.115 323.292C375.574 351.619 453.394 344.053 535.705 329.338C633.918 311.764 703.125 285.224 785.467 287.488C805.03 288.024 824.1 288.918 843.355 289.424C960.27 292.522 1073.49 286.922 1244.36 145.495C1282.28 114.1 1328.39 95.7807 1375.11 85.8618C1588.61 40.4072 1890.2 219.515 1928.84 223.059" stroke="url(#paint45_linear_146_3)" stroke-width="0.25" stroke-miterlimit="10"/>
<path style="mix-blend-mode:screen" d="M-10.6641 17.6211C-10.6641 17.6211 44.179 200.065 181.456 288.233C209.016 305.837 238.606 320.046 271.118 330.054C370.777 360.764 449.427 353.288 529.893 337.381C626.322 318.318 696.821 288.084 780.116 289.455C799.833 289.782 818.965 290.587 838.097 291.123C957.072 294.518 1067.16 293.387 1238.42 146.032C1275.61 114.011 1321.38 95.007 1368.63 84.4923C1586.06 36.1782 1897.25 208.405 1928.13 211.235" stroke="url(#paint46_linear_146_3)" stroke-width="0.25" stroke-miterlimit="10"/>
<path style="mix-blend-mode:screen" d="M-9.8667 13.4502C-9.8667 13.4502 40.9778 198.813 175.948 292.194C203.016 310.841 232.513 326.092 265.149 336.785C366.038 369.848 445.519 362.491 524.077 345.423C618.722 324.87 690.544 291.062 774.762 291.42C794.601 291.569 813.795 292.254 832.834 292.82C953.871 296.722 1060.91 299.909 1232.52 146.537C1269.03 113.921 1314.4 94.1722 1362.2 83.1213C1583.57 31.918 1904.35 197.294 1927.51 199.438" stroke="url(#paint47_linear_146_3)" stroke-width="0.25" stroke-miterlimit="10"/>
<path style="mix-blend-mode:screen" d="M-9.0957 9.31055C-9.0957 9.31055 37.7808 197.592 170.444 296.186C197.02 315.875 226.394 332.169 259.183 343.547C361.272 379.023 441.553 371.577 518.296 353.466C611.096 331.275 684.302 293.893 769.443 293.416C789.436 293.357 808.691 293.952 827.608 294.548C950.705 298.689 1054.82 306.522 1226.61 147.104C1262.42 113.862 1307.39 93.3389 1355.74 81.8114C1580.89 27.2719 1911.43 186.244 1926.87 187.673" stroke="url(#paint48_linear_146_3)" stroke-width="0.25" stroke-miterlimit="10"/>
<path style="mix-blend-mode:screen" d="M-8.32666 5.16992C-8.32666 5.16992 34.5512 196.401 164.907 300.207C190.991 320.939 220.243 338.275 253.185 350.368C356.474 388.227 437.585 380.9 512.452 361.598C603.468 337.947 677.997 296.812 764.06 295.471C784.207 295.173 803.493 295.68 822.317 296.335C947.475 300.714 1048.76 313.254 1220.68 147.729C1255.8 113.891 1300.37 92.6833 1349.25 80.5601C1578.37 23.31 1918.47 175.252 1926.19 175.967" stroke="url(#paint49_linear_146_3)" stroke-width="0.25" stroke-miterlimit="10"/>
<path style="mix-blend-mode:screen" d="M-7.52832 1C-7.52832 1 48.4529 280.459 247.217 357.1C479.354 446.609 600.544 301.399 758.737 297.408C916.93 293.416 1017.57 345.156 1214.8 148.206C1412.03 -48.7438 1925.58 164.112 1925.58 164.112" stroke="url(#paint50_linear_146_3)" stroke-width="0.25" stroke-miterlimit="10"/>
</g>
</mask>
<g mask="url(#mask0_146_3)">
<path d="M-28.8325 -31.9902H2667.17V1067.67H-28.8325V-31.9902Z" fill="url(#paint51_linear_146_3)"/>
</g>
<defs>
<linearGradient id="paint0_linear_146_3" x1="-0.701155" y1="292.434" x2="1928.19" y2="292.434" gradientUnits="userSpaceOnUse">
<stop offset="0.04" stop-color="#4191AC"/>
<stop offset="0.57" stop-color="#8E8CC1"/>
<stop offset="1" stop-color="#2552A1"/>
</linearGradient>
<linearGradient id="paint1_linear_146_3" x1="-1.77879" y1="287.966" x2="1928.74" y2="287.966" gradientUnits="userSpaceOnUse">
<stop offset="0.04" stop-color="#4191AC"/>
<stop offset="0.57" stop-color="#8E8CC1"/>
<stop offset="1" stop-color="#2552A1"/>
</linearGradient>
<linearGradient id="paint2_linear_146_3" x1="-2.82469" y1="283.497" x2="1929.26" y2="283.497" gradientUnits="userSpaceOnUse">
<stop offset="0.04" stop-color="#4191AC"/>
<stop offset="0.57" stop-color="#8E8CC1"/>
<stop offset="1" stop-color="#2552A1"/>
</linearGradient>
<linearGradient id="paint3_linear_146_3" x1="-3.89988" y1="279.059" x2="1929.82" y2="279.059" gradientUnits="userSpaceOnUse">
<stop offset="0.04" stop-color="#4191AC"/>
<stop offset="0.57" stop-color="#8E8CC1"/>
<stop offset="1" stop-color="#2552A1"/>
</linearGradient>
<linearGradient id="paint4_linear_146_3" x1="-4.94676" y1="274.591" x2="1930.37" y2="274.591" gradientUnits="userSpaceOnUse">
<stop offset="0.04" stop-color="#4191AC"/>
<stop offset="0.57" stop-color="#8E8CC1"/>
<stop offset="1" stop-color="#2552A1"/>
</linearGradient>
<linearGradient id="paint5_linear_146_3" x1="-6.02244" y1="270.182" x2="1930.93" y2="270.182" gradientUnits="userSpaceOnUse">
<stop offset="0.04" stop-color="#4191AC"/>
<stop offset="0.57" stop-color="#8E8CC1"/>
<stop offset="1" stop-color="#2552A1"/>
</linearGradient>
<linearGradient id="paint6_linear_146_3" x1="-7.09763" y1="265.744" x2="1931.45" y2="265.744" gradientUnits="userSpaceOnUse">
<stop offset="0.04" stop-color="#4191AC"/>
<stop offset="0.57" stop-color="#8E8CC1"/>
<stop offset="1" stop-color="#2552A1"/>
</linearGradient>
<linearGradient id="paint7_linear_146_3" x1="-8.14256" y1="261.337" x2="1932.01" y2="261.337" gradientUnits="userSpaceOnUse">
<stop offset="0.04" stop-color="#4191AC"/>
<stop offset="0.57" stop-color="#8E8CC1"/>
<stop offset="1" stop-color="#2552A1"/>
</linearGradient>
<linearGradient id="paint8_linear_146_3" x1="-9.22508" y1="256.957" x2="1932.55" y2="256.957" gradientUnits="userSpaceOnUse">
<stop offset="0.04" stop-color="#4191AC"/>
<stop offset="0.57" stop-color="#8E8CC1"/>
<stop offset="1" stop-color="#2552A1"/>
</linearGradient>
<linearGradient id="paint9_linear_146_3" x1="-10.2676" y1="252.578" x2="1933.11" y2="252.578" gradientUnits="userSpaceOnUse">
<stop offset="0.04" stop-color="#4191AC"/>
<stop offset="0.57" stop-color="#8E8CC1"/>
<stop offset="1" stop-color="#2552A1"/>
</linearGradient>
<linearGradient id="paint10_linear_146_3" x1="-11.3471" y1="248.23" x2="1933.66" y2="248.23" gradientUnits="userSpaceOnUse">
<stop offset="0.04" stop-color="#4191AC"/>
<stop offset="0.57" stop-color="#8E8CC1"/>
<stop offset="1" stop-color="#2552A1"/>
</linearGradient>
<linearGradient id="paint11_linear_146_3" x1="-12.3877" y1="243.911" x2="1934.22" y2="243.911" gradientUnits="userSpaceOnUse">
<stop offset="0.04" stop-color="#4191AC"/>
<stop offset="0.57" stop-color="#8E8CC1"/>
<stop offset="1" stop-color="#2552A1"/>
</linearGradient>
<linearGradient id="paint12_linear_146_3" x1="-13.4668" y1="239.592" x2="1934.74" y2="239.592" gradientUnits="userSpaceOnUse">
<stop offset="0.04" stop-color="#4191AC"/>
<stop offset="0.57" stop-color="#8E8CC1"/>
<stop offset="1" stop-color="#2552A1"/>
</linearGradient>
<linearGradient id="paint13_linear_146_3" x1="-14.5112" y1="235.302" x2="1935.3" y2="235.302" gradientUnits="userSpaceOnUse">
<stop offset="0.04" stop-color="#4191AC"/>
<stop offset="0.57" stop-color="#8E8CC1"/>
<stop offset="1" stop-color="#2552A1"/>
</linearGradient>
<linearGradient id="paint14_linear_146_3" x1="-15.5888" y1="231.013" x2="1935.85" y2="231.013" gradientUnits="userSpaceOnUse">
<stop offset="0.04" stop-color="#4191AC"/>
<stop offset="0.57" stop-color="#8E8CC1"/>
<stop offset="1" stop-color="#2552A1"/>
</linearGradient>
<linearGradient id="paint15_linear_146_3" x1="-16.6347" y1="236.732" x2="1936.4" y2="236.732" gradientUnits="userSpaceOnUse">
<stop offset="0.04" stop-color="#4191AC"/>
<stop offset="0.57" stop-color="#8E8CC1"/>
<stop offset="1" stop-color="#2552A1"/>
</linearGradient>
<linearGradient id="paint16_linear_146_3" x1="-17.7138" y1="244.238" x2="1936.95" y2="244.238" gradientUnits="userSpaceOnUse">
<stop offset="0.04" stop-color="#4191AC"/>
<stop offset="0.57" stop-color="#8E8CC1"/>
<stop offset="1" stop-color="#2552A1"/>
</linearGradient>
<linearGradient id="paint17_linear_146_3" x1="-18.7529" y1="251.775" x2="1937.51" y2="251.775" gradientUnits="userSpaceOnUse">
<stop offset="0.04" stop-color="#4191AC"/>
<stop offset="0.57" stop-color="#8E8CC1"/>
<stop offset="1" stop-color="#2552A1"/>
</linearGradient>
<linearGradient id="paint18_linear_146_3" x1="-19.8335" y1="259.31" x2="1938.06" y2="259.31" gradientUnits="userSpaceOnUse">
<stop offset="0.04" stop-color="#4191AC"/>
<stop offset="0.57" stop-color="#8E8CC1"/>
<stop offset="1" stop-color="#2552A1"/>
</linearGradient>
<linearGradient id="paint19_linear_146_3" x1="-20.8789" y1="266.876" x2="1938.62" y2="266.876" gradientUnits="userSpaceOnUse">
<stop offset="0.04" stop-color="#4191AC"/>
<stop offset="0.57" stop-color="#8E8CC1"/>
<stop offset="1" stop-color="#2552A1"/>
</linearGradient>
<linearGradient id="paint20_linear_146_3" x1="-21.9555" y1="274.412" x2="1939.2" y2="274.412" gradientUnits="userSpaceOnUse">
<stop offset="0.04" stop-color="#4191AC"/>
<stop offset="0.57" stop-color="#8E8CC1"/>
<stop offset="1" stop-color="#2552A1"/>
</linearGradient>
<linearGradient id="paint21_linear_146_3" x1="-23.0044" y1="278.285" x2="1939.75" y2="278.285" gradientUnits="userSpaceOnUse">
<stop offset="0.04" stop-color="#4191AC"/>
<stop offset="0.57" stop-color="#8E8CC1"/>
<stop offset="1" stop-color="#2552A1"/>
</linearGradient>
<linearGradient id="paint22_linear_146_3" x1="-24.0742" y1="280.042" x2="1940.34" y2="280.042" gradientUnits="userSpaceOnUse">
<stop offset="0.04" stop-color="#4191AC"/>
<stop offset="0.57" stop-color="#8E8CC1"/>
<stop offset="1" stop-color="#2552A1"/>
</linearGradient>
<linearGradient id="paint23_linear_146_3" x1="-25.1543" y1="281.8" x2="1940.89" y2="281.8" gradientUnits="userSpaceOnUse">
<stop offset="0.04" stop-color="#4191AC"/>
<stop offset="0.57" stop-color="#8E8CC1"/>
<stop offset="1" stop-color="#2552A1"/>
</linearGradient>
<linearGradient id="paint24_linear_146_3" x1="-26.1997" y1="283.586" x2="1941.45" y2="283.586" gradientUnits="userSpaceOnUse">
<stop offset="0.04" stop-color="#4191AC"/>
<stop offset="0.57" stop-color="#8E8CC1"/>
<stop offset="1" stop-color="#2552A1"/>
</linearGradient>
<linearGradient id="paint25_linear_146_3" x1="-27.2768" y1="281.71" x2="1942.03" y2="281.71" gradientUnits="userSpaceOnUse">
<stop offset="0.04" stop-color="#4191AC"/>
<stop offset="0.57" stop-color="#8E8CC1"/>
<stop offset="1" stop-color="#2552A1"/>
</linearGradient>
<linearGradient id="paint26_linear_146_3" x1="-26.5058" y1="273.757" x2="1941.36" y2="273.757" gradientUnits="userSpaceOnUse">
<stop offset="0.04" stop-color="#4191AC"/>
<stop offset="0.57" stop-color="#8E8CC1"/>
<stop offset="1" stop-color="#2552A1"/>
</linearGradient>
<linearGradient id="paint27_linear_146_3" x1="-25.708" y1="265.774" x2="1940.71" y2="265.774" gradientUnits="userSpaceOnUse">
<stop offset="0.04" stop-color="#4191AC"/>
<stop offset="0.57" stop-color="#8E8CC1"/>
<stop offset="1" stop-color="#2552A1"/>
</linearGradient>
<linearGradient id="paint28_linear_146_3" x1="-24.9355" y1="257.821" x2="1940.03" y2="257.821" gradientUnits="userSpaceOnUse">
<stop offset="0.04" stop-color="#4191AC"/>
<stop offset="0.57" stop-color="#8E8CC1"/>
<stop offset="1" stop-color="#2552A1"/>
</linearGradient>
<linearGradient id="paint29_linear_146_3" x1="-24.1689" y1="249.868" x2="1939.39" y2="249.868" gradientUnits="userSpaceOnUse">
<stop offset="0.04" stop-color="#4191AC"/>
<stop offset="0.57" stop-color="#8E8CC1"/>
<stop offset="1" stop-color="#2552A1"/>
</linearGradient>
<linearGradient id="paint30_linear_146_3" x1="-23.4009" y1="241.915" x2="1938.74" y2="241.915" gradientUnits="userSpaceOnUse">
<stop offset="0.04" stop-color="#4191AC"/>
<stop offset="0.57" stop-color="#8E8CC1"/>
<stop offset="1" stop-color="#2552A1"/>
</linearGradient>
<linearGradient id="paint31_linear_146_3" x1="-22.6313" y1="233.932" x2="1938.06" y2="233.932" gradientUnits="userSpaceOnUse">
<stop offset="0.04" stop-color="#4191AC"/>
<stop offset="0.57" stop-color="#8E8CC1"/>
<stop offset="1" stop-color="#2552A1"/>
</linearGradient>
<linearGradient id="paint32_linear_146_3" x1="-21.8613" y1="225.979" x2="1937.42" y2="225.979" gradientUnits="userSpaceOnUse">
<stop offset="0.04" stop-color="#4191AC"/>
<stop offset="0.57" stop-color="#8E8CC1"/>
<stop offset="1" stop-color="#2552A1"/>
</linearGradient>
<linearGradient id="paint33_linear_146_3" x1="-21.0937" y1="218.026" x2="1936.77" y2="218.026" gradientUnits="userSpaceOnUse">
<stop offset="0.04" stop-color="#4191AC"/>
<stop offset="0.57" stop-color="#8E8CC1"/>
<stop offset="1" stop-color="#2552A1"/>
</linearGradient>
<linearGradient id="paint34_linear_146_3" x1="-20.3237" y1="210.073" x2="1936.1" y2="210.073" gradientUnits="userSpaceOnUse">
<stop offset="0.04" stop-color="#4191AC"/>
<stop offset="0.57" stop-color="#8E8CC1"/>
<stop offset="1" stop-color="#2552A1"/>
</linearGradient>
<linearGradient id="paint35_linear_146_3" x1="-19.5537" y1="202.12" x2="1935.45" y2="202.12" gradientUnits="userSpaceOnUse">
<stop offset="0.04" stop-color="#4191AC"/>
<stop offset="0.57" stop-color="#8E8CC1"/>
<stop offset="1" stop-color="#2552A1"/>
</linearGradient>
<linearGradient id="paint36_linear_146_3" x1="-18.7861" y1="194.137" x2="1934.77" y2="194.137" gradientUnits="userSpaceOnUse">
<stop offset="0.04" stop-color="#4191AC"/>
<stop offset="0.57" stop-color="#8E8CC1"/>
<stop offset="1" stop-color="#2552A1"/>
</linearGradient>
<linearGradient id="paint37_linear_146_3" x1="-17.9878" y1="186.185" x2="1934.13" y2="186.185" gradientUnits="userSpaceOnUse">
<stop offset="0.04" stop-color="#4191AC"/>
<stop offset="0.57" stop-color="#8E8CC1"/>
<stop offset="1" stop-color="#2552A1"/>
</linearGradient>
<linearGradient id="paint38_linear_146_3" x1="-17.2187" y1="178.23" x2="1933.48" y2="178.23" gradientUnits="userSpaceOnUse">
<stop offset="0.04" stop-color="#4191AC"/>
<stop offset="0.57" stop-color="#8E8CC1"/>
<stop offset="1" stop-color="#2552A1"/>
</linearGradient>
<linearGradient id="paint39_linear_146_3" x1="-16.4516" y1="170.278" x2="1932.8" y2="170.278" gradientUnits="userSpaceOnUse">
<stop offset="0.04" stop-color="#4191AC"/>
<stop offset="0.57" stop-color="#8E8CC1"/>
<stop offset="1" stop-color="#2552A1"/>
</linearGradient>
<linearGradient id="paint40_linear_146_3" x1="-15.6811" y1="170.903" x2="1932.16" y2="170.903" gradientUnits="userSpaceOnUse">
<stop offset="0.04" stop-color="#4191AC"/>
<stop offset="0.57" stop-color="#8E8CC1"/>
<stop offset="1" stop-color="#2552A1"/>
</linearGradient>
<linearGradient id="paint41_linear_146_3" x1="-14.9121" y1="173.137" x2="1931.51" y2="173.137" gradientUnits="userSpaceOnUse">
<stop offset="0.04" stop-color="#4191AC"/>
<stop offset="0.57" stop-color="#8E8CC1"/>
<stop offset="1" stop-color="#2552A1"/>
</linearGradient>
<linearGradient id="paint42_linear_146_3" x1="-14.1416" y1="175.401" x2="1930.84" y2="175.401" gradientUnits="userSpaceOnUse">
<stop offset="0.04" stop-color="#4191AC"/>
<stop offset="0.57" stop-color="#8E8CC1"/>
<stop offset="1" stop-color="#2552A1"/>
</linearGradient>
<linearGradient id="paint43_linear_146_3" x1="-13.3432" y1="177.665" x2="1930.19" y2="177.665" gradientUnits="userSpaceOnUse">
<stop offset="0.04" stop-color="#4191AC"/>
<stop offset="0.57" stop-color="#8E8CC1"/>
<stop offset="1" stop-color="#2552A1"/>
</linearGradient>
<linearGradient id="paint44_linear_146_3" x1="-12.5771" y1="179.959" x2="1929.51" y2="179.959" gradientUnits="userSpaceOnUse">
<stop offset="0.04" stop-color="#4191AC"/>
<stop offset="0.57" stop-color="#8E8CC1"/>
<stop offset="1" stop-color="#2552A1"/>
</linearGradient>
<linearGradient id="paint45_linear_146_3" x1="-11.8037" y1="182.222" x2="1928.87" y2="182.222" gradientUnits="userSpaceOnUse">
<stop offset="0.04" stop-color="#4191AC"/>
<stop offset="0.57" stop-color="#8E8CC1"/>
<stop offset="1" stop-color="#2552A1"/>
</linearGradient>
<linearGradient id="paint46_linear_146_3" x1="-11.0332" y1="184.546" x2="1928.22" y2="184.546" gradientUnits="userSpaceOnUse">
<stop offset="0.04" stop-color="#4191AC"/>
<stop offset="0.57" stop-color="#8E8CC1"/>
<stop offset="1" stop-color="#2552A1"/>
</linearGradient>
<linearGradient id="paint47_linear_146_3" x1="-10.2358" y1="186.839" x2="1927.54" y2="186.839" gradientUnits="userSpaceOnUse">
<stop offset="0.04" stop-color="#4191AC"/>
<stop offset="0.57" stop-color="#8E8CC1"/>
<stop offset="1" stop-color="#2552A1"/>
</linearGradient>
<linearGradient id="paint48_linear_146_3" x1="-9.46481" y1="189.103" x2="1926.9" y2="189.103" gradientUnits="userSpaceOnUse">
<stop offset="0.04" stop-color="#4191AC"/>
<stop offset="0.57" stop-color="#8E8CC1"/>
<stop offset="1" stop-color="#2552A1"/>
</linearGradient>
<linearGradient id="paint49_linear_146_3" x1="-8.69577" y1="191.426" x2="1926.25" y2="191.426" gradientUnits="userSpaceOnUse">
<stop offset="0.04" stop-color="#4191AC"/>
<stop offset="0.57" stop-color="#8E8CC1"/>
<stop offset="1" stop-color="#2552A1"/>
</linearGradient>
<linearGradient id="paint50_linear_146_3" x1="-7.92819" y1="193.75" x2="1925.7" y2="193.75" gradientUnits="userSpaceOnUse">
<stop offset="0.04" stop-color="#4191AC"/>
<stop offset="0.57" stop-color="#8E8CC1"/>
<stop offset="1" stop-color="#2552A1"/>
</linearGradient>
<linearGradient id="paint51_linear_146_3" x1="1707.48" y1="282.199" x2="1166.51" y2="942.618" gradientUnits="userSpaceOnUse">
<stop stop-color="#00EFE1"/>
<stop offset="0.5" stop-color="#2638D8" stop-opacity="0.83"/>
<stop offset="1" stop-color="#CD37E6" stop-opacity="0.8"/>
</linearGradient>
</defs>
</svg>
