<svg width="117" height="74" viewBox="0 0 117 74" fill="none" xmlns="http://www.w3.org/2000/svg">
<path d="M13.1358 36.76C17.4558 38.584 19.6158 41.584 19.6158 45.76V60.52C19.6158 61.24 19.8558 61.84 20.3358 62.32C20.8158 62.8 21.4158 63.04 22.1358 63.04H26.8158V73.12H17.4558C14.1918 73.12 11.5758 72.136 9.60778 70.168C7.63978 68.2 6.65578 65.584 6.65578 62.32V44.32C6.65578 43.6 6.41578 43 5.93578 42.52C5.45578 42.04 4.85578 41.8 4.13578 41.8H0.895781V31.72H4.13578C4.85578 31.72 5.45578 31.48 5.93578 31C6.41578 30.52 6.65578 29.92 6.65578 29.2V11.2C6.65578 7.936 7.63978 5.32 9.60778 3.352C11.5758 1.384 14.1918 0.399999 17.4558 0.399999H26.8158V10.48H22.1358C21.4158 10.48 20.8158 10.72 20.3358 11.2C19.8558 11.68 19.6158 12.28 19.6158 13V27.76C19.6158 31.936 17.4558 34.936 13.1358 36.76ZM103.856 36.76C99.5358 34.936 97.3758 31.936 97.3758 27.76V13C97.3758 12.28 97.1358 11.68 96.6558 11.2C96.1758 10.72 95.5758 10.48 94.8558 10.48H90.1758V0.399999H99.5358C102.8 0.399999 105.416 1.384 107.384 3.352C109.352 5.32 110.336 7.936 110.336 11.2V29.2C110.336 29.92 110.576 30.52 111.056 31C111.536 31.48 112.136 31.72 112.856 31.72H116.096V41.8H112.856C112.136 41.8 111.536 42.04 111.056 42.52C110.576 43 110.336 43.6 110.336 44.32V62.32C110.336 65.584 109.352 68.2 107.384 70.168C105.416 72.136 102.8 73.12 99.5358 73.12H90.1758V63.04H94.8558C95.5758 63.04 96.1758 62.8 96.6558 62.32C97.1358 61.84 97.3758 61.24 97.3758 60.52V45.76C97.3758 41.584 99.5358 38.584 103.856 36.76Z" fill="#44DDC6"/>
<path d="M70.7442 42.88L77.2242 19.84H90.9042L79.0242 58H65.7042L58.5042 34.96L51.3042 58H37.9842L26.1042 19.84H39.7842L46.2642 42.88L52.7442 19.84H64.2642L70.7442 42.88Z" fill="white"/>
</svg>
